<?xml version="1.0" standalone="no"?>
<!DOCTYPE svg PUBLIC "-//W3C//DTD SVG 20010904//EN"
 "http://www.w3.org/TR/2001/REC-SVG-20010904/DTD/svg10.dtd">
<svg version="1.0" xmlns="http://www.w3.org/2000/svg"
 width="62.000000pt" height="62.000000pt" viewBox="0 0 62.000000 62.000000"
 preserveAspectRatio="xMidYMid meet">

<g transform="translate(0.000000,62.000000) scale(0.100000,-0.100000)"
fill="#000000" stroke="none">
<path d="M57 573 c-4 -3 -7 -115 -7 -247 l0 -241 29 -28 c32 -30 78 -36 87
-12 9 22 248 22 270 0 19 -19 60 -19 71 -1 4 8 19 16 33 18 l25 3 3 258 2 257
-253 0 c-140 0 -257 -3 -260 -7z m295 -160 l3 -158 73 -3 72 -3 0 -84 0 -85
-85 0 -85 0 0 50 0 50 -130 0 -130 0 0 195 0 195 140 0 139 0 3 -157z m146
135 c3 -16 -5 -18 -62 -18 -60 0 -66 2 -66 20 0 19 5 21 62 18 50 -2 63 -6 66
-20z m60 -225 l2 -243 -25 0 -25 0 0 246 0 245 23 -3 22 -3 3 -242z m-68 157
l0 -30 -60 0 -60 0 0 30 0 30 60 0 60 0 0 -30z m8 -62 c3 -16 -5 -18 -62 -18
-60 0 -66 2 -66 20 0 19 5 21 62 18 50 -2 63 -6 66 -20z m-8 -68 l0 -30 -60 0
-60 0 0 30 0 30 60 0 60 0 0 -30z m8 -62 c3 -16 -5 -18 -62 -18 -60 0 -66 2
-66 20 0 19 5 21 62 18 50 -2 63 -6 66 -20z m-178 -168 l0 -40 -125 0 -125 0
0 40 0 40 125 0 125 0 0 -40z m-177 -67 c-7 -2 -19 -2 -25 0 -7 3 -2 5 12 5
14 0 19 -2 13 -5z m350 0 c-7 -2 -21 -2 -30 0 -10 3 -4 5 12 5 17 0 24 -2 18
-5z"/>
<path d="M90 370 l0 -120 120 0 120 0 0 120 0 120 -120 0 -120 0 0 -120z m228
-2 l3 -108 -106 0 -105 0 0 110 0 111 103 -3 102 -3 3 -107z"/>
<path d="M110 120 c0 -5 11 -10 24 -10 14 0 28 5 31 10 4 6 -7 10 -24 10 -17
0 -31 -4 -31 -10z"/>
</g>
</svg>
