<?xml version="1.0" standalone="no"?>
<!DOCTYPE svg PUBLIC "-//W3C//DTD SVG 20010904//EN"
 "http://www.w3.org/TR/2001/REC-SVG-20010904/DTD/svg10.dtd">
<svg version="1.0" xmlns="http://www.w3.org/2000/svg"
 width="50.000000pt" height="50.000000pt" viewBox="0 0 50.000000 50.000000"
 preserveAspectRatio="xMidYMid meet">

<g transform="translate(0.000000,50.000000) scale(0.100000,-0.100000)"
fill="#000000" stroke="none">
<path d="M5 487 c-3 -7 -4 -118 -3 -247 l3 -235 245 0 245 0 0 245 0 245 -243
3 c-191 2 -244 0 -247 -11z m475 -237 l0 -230 -230 0 -230 0 0 230 0 230 230
0 230 0 0 -230z"/>
<path d="M240 400 c0 -13 -5 -18 -15 -14 -8 4 -15 2 -15 -4 0 -5 7 -15 15 -22
9 -7 15 -29 15 -51 l0 -39 -34 17 c-20 9 -37 26 -40 40 -6 23 -26 33 -26 12 0
-6 -9 -8 -20 -4 -25 8 -26 -3 -3 -21 11 -8 13 -13 6 -14 -7 0 -13 -5 -13 -11
0 -7 11 -9 27 -6 25 5 83 -18 83 -33 0 -15 -58 -38 -83 -33 -16 3 -27 1 -27
-6 0 -6 6 -11 13 -11 7 -1 5 -6 -5 -14 -24 -18 -23 -29 2 -21 11 4 20 2 20 -4
0 -21 20 -11 26 12 3 14 20 31 40 40 l34 17 0 -39 c0 -22 -6 -44 -15 -51 -8
-7 -15 -17 -15 -22 0 -6 7 -8 15 -4 10 4 15 -1 15 -14 0 -11 5 -20 10 -20 6 0
10 9 10 20 0 13 5 18 15 14 8 -4 15 -2 15 4 0 5 -7 15 -15 22 -9 7 -15 29 -15
51 l0 39 34 -17 c20 -9 37 -26 40 -40 6 -23 26 -33 26 -12 0 6 9 8 20 4 25 -8
26 3 3 21 -11 8 -13 13 -5 14 6 0 12 5 12 11 0 7 -11 9 -27 6 -25 -5 -83 18
-83 33 0 16 58 38 85 32 27 -5 29 -4 16 11 -11 14 -11 18 3 23 23 9 20 27 -4
19 -11 -4 -20 -2 -20 4 0 21 -20 11 -26 -12 -3 -14 -20 -31 -40 -40 l-34 -17
0 39 c0 22 6 44 15 51 8 7 15 17 15 22 0 6 -7 8 -15 4 -10 -4 -15 1 -15 14 0
11 -4 20 -10 20 -5 0 -10 -9 -10 -20z"/>
</g>
</svg>
