<?xml version="1.0" standalone="no"?>
<!DOCTYPE svg PUBLIC "-//W3C//DTD SVG 20010904//EN"
 "http://www.w3.org/TR/2001/REC-SVG-20010904/DTD/svg10.dtd">
<svg version="1.0" xmlns="http://www.w3.org/2000/svg"
 width="50.000000pt" height="50.000000pt" viewBox="0 0 50.000000 50.000000"
 preserveAspectRatio="xMidYMid meet">

<g transform="translate(0.000000,50.000000) scale(0.100000,-0.100000)"
fill="#000000" stroke="none">
<path d="M38 349 c-15 -16 -15 -19 -3 -19 12 0 15 -20 16 -112 1 -62 3 -105 6
-95 4 14 16 17 68 17 41 0 65 -4 68 -12 4 -10 6 -10 6 0 1 16 51 16 51 0 0 -9
3 -9 12 0 8 8 47 12 110 12 l98 0 0 115 0 115 -207 -1 c-192 -1 -209 -2 -225
-20z m412 -89 l0 -100 -195 0 -195 0 0 100 0 100 195 0 195 0 0 -100z"/>
<path d="M133 330 c-49 -20 -59 -96 -17 -129 15 -12 38 -21 51 -21 34 0 73 42
73 80 0 28 -29 70 -49 70 -5 0 -15 2 -23 4 -7 3 -23 1 -35 -4z m72 -30 c17
-19 17 -20 -1 -20 -17 0 -17 -2 4 -18 21 -16 21 -19 7 -40 -18 -25 -37 -30
-29 -7 4 8 1 15 -5 15 -6 0 -11 -7 -11 -15 0 -18 -31 -20 -48 -3 -17 17 -15
28 6 29 13 0 12 2 -5 9 -26 11 -27 14 -13 41 13 24 27 24 33 2 4 -15 6 -15 12
5 9 27 26 28 50 2z"/>
<path d="M320 327 c-14 -7 -31 -25 -38 -40 -36 -76 64 -142 123 -82 31 30 32
66 3 99 -29 31 -57 39 -88 23z m75 -27 c17 -19 17 -20 -1 -20 -18 -1 -18 -1
-1 -15 13 -9 17 -20 13 -33 -9 -27 -36 -37 -36 -14 -1 16 -1 16 -11 0 -13 -23
-32 -23 -54 2 -18 19 -17 20 6 21 l24 0 -22 9 c-26 11 -27 14 -13 41 13 24 30
25 31 2 0 -14 3 -13 11 5 14 27 29 28 53 2z"/>
</g>
</svg>
