<?xml version="1.0" standalone="no"?>
<!DOCTYPE svg PUBLIC "-//W3C//DTD SVG 20010904//EN"
 "http://www.w3.org/TR/2001/REC-SVG-20010904/DTD/svg10.dtd">
<svg version="1.0" xmlns="http://www.w3.org/2000/svg"
 width="50.000000pt" height="50.000000pt" viewBox="0 0 50.000000 50.000000"
 preserveAspectRatio="xMidYMid meet">

<g transform="translate(0.000000,50.000000) scale(0.100000,-0.100000)"
fill="#000000" stroke="none">
<path d="M72 395 c-32 -65 -32 -67 -32 -210 l0 -145 210 0 210 0 0 145 c0 143
0 145 -32 210 l-32 65 -146 0 -146 0 -32 -65z m340 0 c15 -27 25 -52 22 -55
-3 -2 -9 2 -14 10 -7 10 -10 11 -10 3 0 -10 -39 -13 -160 -13 -121 0 -160 3
-161 13 0 10 -2 10 -6 0 -2 -7 -9 -13 -14 -13 -9 0 23 72 44 98 7 9 44 12 141
10 l131 -3 27 -50z m36 -207 l-3 -133 -195 0 -195 0 -3 133 -3 132 201 0 201
0 -3 -132z"/>
<path d="M203 415 c-21 -23 -16 -25 47 -25 33 0 60 3 60 6 0 31 -84 46 -107
19z"/>
<path d="M207 373 c24 -2 62 -2 85 0 24 2 5 4 -42 4 -47 0 -66 -2 -43 -4z"/>
<path d="M133 285 c-17 -7 -33 -12 -35 -10 -2 3 -10 -16 -17 -41 -20 -66 -1
-126 43 -142 18 -7 44 -12 58 -12 25 0 91 23 88 31 -1 2 3 17 9 32 6 16 11 36
11 45 0 24 -25 93 -32 87 -3 -3 -18 1 -34 10 -35 18 -50 18 -91 0z m93 -20
c17 -13 15 -13 -18 -3 -29 9 -45 8 -65 -1 -26 -10 -27 -10 -9 4 25 19 66 19
92 0z m-12 -23 c2 -4 -13 -7 -34 -7 -21 0 -36 3 -34 7 3 5 18 8 34 8 16 0 31
-3 34 -8z m-108 -57 c0 -30 -3 -49 -8 -42 -13 21 -9 97 6 97 1 0 1 -25 2 -55z
m164 10 c0 -39 -8 -65 -21 -65 -6 0 -5 10 2 21 6 12 9 37 6 56 -4 20 -2 31 4
28 5 -4 9 -21 9 -40z m-75 25 c3 -5 -3 -10 -15 -10 -12 0 -18 5 -15 10 3 6 10
10 15 10 5 0 12 -4 15 -10z m-66 -37 c0 -33 -1 -35 -9 -15 -8 20 -4 52 6 52 2
0 4 -17 3 -37z m114 -11 c-9 -35 -19 -25 -15 14 3 26 7 33 13 22 4 -8 5 -24 2
-36z m-96 6 c-3 -8 -6 -5 -6 6 -1 11 2 17 5 13 3 -3 4 -12 1 -19z m43 12 c0
-5 -4 -10 -10 -10 -5 0 -10 5 -10 10 0 6 5 10 10 10 6 0 10 -4 10 -10z m30 -5
c0 -8 -4 -15 -8 -15 -5 0 -9 7 -9 15 0 8 4 15 9 15 4 0 8 -7 8 -15z m-27 -32
c-7 -2 -19 -2 -25 0 -7 3 -2 5 12 5 14 0 19 -2 13 -5z m10 -26 c-16 -7 -30 -7
-45 0 -20 9 -16 10 22 10 38 0 42 -1 23 -10z m8 -25 c-25 -10 -37 -10 -62 0
-29 12 -28 13 31 13 59 0 60 -1 31 -13z"/>
<path d="M322 258 c3 -20 9 -23 53 -23 44 0 50 3 53 23 3 21 0 22 -53 22 -53
0 -56 -1 -53 -22z m43 2 c3 -5 -1 -10 -9 -10 -9 0 -16 5 -16 10 0 6 4 10 9 10
6 0 13 -4 16 -10z m45 0 c0 -5 -7 -10 -16 -10 -8 0 -12 5 -9 10 3 6 10 10 16
10 5 0 9 -4 9 -10z"/>
<path d="M340 190 c0 -11 5 -20 10 -20 6 0 10 9 10 20 0 11 -4 20 -10 20 -5 0
-10 -9 -10 -20z"/>
<path d="M372 190 c0 -14 2 -19 5 -12 2 6 2 18 0 25 -3 6 -5 1 -5 -13z"/>
<path d="M390 190 c0 -11 5 -20 10 -20 6 0 10 9 10 20 0 11 -4 20 -10 20 -5 0
-10 -9 -10 -20z"/>
<path d="M337 144 c-4 -4 -7 -20 -7 -36 0 -27 2 -28 46 -28 45 0 45 0 42 33
-3 29 -7 32 -38 35 -20 2 -39 0 -43 -4z m71 -31 c-5 -25 -61 -25 -66 0 -3 14
4 17 33 17 29 0 36 -3 33 -17z"/>
<path d="M350 109 c0 -5 5 -7 10 -4 6 3 10 8 10 11 0 2 -4 4 -10 4 -5 0 -10
-5 -10 -11z"/>
<path d="M385 110 c3 -5 8 -10 11 -10 2 0 4 5 4 10 0 6 -5 10 -11 10 -5 0 -7
-4 -4 -10z"/>
</g>
</svg>
