<?xml version="1.0" standalone="no"?>
<!DOCTYPE svg PUBLIC "-//W3C//DTD SVG 20010904//EN"
 "http://www.w3.org/TR/2001/REC-SVG-20010904/DTD/svg10.dtd">
<svg version="1.0" xmlns="http://www.w3.org/2000/svg"
 width="50.000000pt" height="50.000000pt" viewBox="0 0 50.000000 50.000000"
 preserveAspectRatio="xMidYMid meet">

<g transform="translate(0.000000,50.000000) scale(0.100000,-0.100000)"
fill="#000000" stroke="none">
<path d="M75 467 c-3 -7 -4 -109 -3 -227 l3 -215 175 0 175 0 0 225 0 225
-173 3 c-134 2 -174 0 -177 -11z m57 -29 l3 -33 115 0 115 0 5 30 c4 22 11 30
25 30 19 0 20 -8 23 -213 l2 -212 -165 0 -165 0 0 215 c0 206 1 215 19 215 15
0 21 -8 23 -32z m227 5 c0 -27 -1 -27 -9 -5 -13 30 -60 31 -68 0 l-5 -22 -8
22 c-7 19 -16 22 -59 22 -43 0 -52 -3 -60 -22 -8 -22 -9 -22 -9 -2 -1 11 2 24
6 27 3 4 53 7 110 7 l103 0 -1 -27z m-179 -13 c0 -5 -4 -10 -10 -10 -5 0 -10
5 -10 10 0 6 5 10 10 10 6 0 10 -4 10 -10z m130 0 c0 -5 -4 -10 -10 -10 -5 0
-10 5 -10 10 0 6 5 10 10 10 6 0 10 -4 10 -10z"/>
<path d="M143 363 c-10 -3 -13 -41 -13 -138 0 -112 2 -134 16 -139 20 -8 188
-8 208 0 24 9 24 269 0 278 -19 7 -193 7 -211 -1z m202 -59 c-18 -59 -49 -92
-94 -100 -20 -4 -51 -17 -68 -31 l-33 -24 0 100 0 101 105 0 104 0 -14 -46z
m15 -119 l0 -85 -105 0 c-80 0 -105 3 -105 13 0 24 55 66 103 78 34 8 56 21
75 45 15 19 28 34 30 34 1 0 2 -38 2 -85z"/>
<path d="M193 313 c15 -2 39 -2 55 0 15 2 2 4 -28 4 -30 0 -43 -2 -27 -4z"/>
<path d="M188 273 c12 -2 30 -2 40 0 9 3 -1 5 -23 4 -22 0 -30 -2 -17 -4z"/>
</g>
</svg>
